<?xml version="1.0" encoding="utf-8"?>
<!-- Generator: Adobe Illustrator 19.0.0, SVG Export Plug-In . SVG Version: 6.00 Build 0)  -->
<svg version="1.1" id="Layer_1" xmlns="http://www.w3.org/2000/svg" xmlns:xlink="http://www.w3.org/1999/xlink" x="0px" y="0px"
	 viewBox="0 0 60 60" style="enable-background:new 0 0 60 60;" xml:space="preserve">
<style type="text/css">
	.st0{fill:#E6E6E6;}
</style>
<g id="XMLID_664_">
	<path id="LinkedIn__x28_alt_x29__1_" class="st0" d="M51,5.4H9C7,5.4,5.4,7,5.4,8.9v42.2C5.4,53,7,54.6,9,54.6h42
		c2,0,3.6-1.6,3.6-3.5V8.9C54.6,7,53,5.4,51,5.4z M20.3,46.6h-7.4V24.4h7.4V46.6z M16.6,21.3L16.6,21.3c-2.5,0-4.2-1.7-4.2-3.8
		c0-2.2,1.7-3.8,4.2-3.8c2.5,0,4.1,1.7,4.2,3.8C20.8,19.6,19.2,21.3,16.6,21.3z M47.1,46.6h-7.4V34.7c0-3-1.1-5-3.8-5
		c-2.1,0-3.3,1.4-3.8,2.7c-0.2,0.5-0.2,1.1-0.2,1.8v12.4h-7.4c0,0,0.1-20.1,0-22.2h7.4v3.2c1-1.5,2.8-3.7,6.7-3.7
		c4.9,0,8.6,3.2,8.6,10L47.1,46.6L47.1,46.6z M31.8,27.6C31.8,27.6,31.8,27.5,31.8,27.6L31.8,27.6L31.8,27.6z"/>
</g>
</svg>
