<?xml version="1.0" encoding="utf-8"?>
<!-- Generator: Adobe Illustrator 19.0.0, SVG Export Plug-In . SVG Version: 6.00 Build 0)  -->
<svg version="1.1" id="Layer_1" xmlns="http://www.w3.org/2000/svg" xmlns:xlink="http://www.w3.org/1999/xlink" x="0px" y="0px"
	 viewBox="0 0 410 120" style="enable-background:new 0 0 410 120;" xml:space="preserve">
<style type="text/css">
	.st0{fill:#E5E5E4;}
	.st1{fill:#AED036;}
</style>
<g id="XMLID_1_">
	<g id="XMLID_28_">
		<path id="XMLID_11_" class="st0" d="M124,86.3V52.8h4v33.5H124z"/>
		<path id="XMLID_13_" class="st0" d="M145.6,87.6l-14.2-34.8h4.3l9.8,25.6l9.8-25.6h4.3L145.6,87.6z"/>
		<polygon id="XMLID_31_" class="st0" points="173,51.5 157.8,86.3 162.1,86.3 173,60.3 183.9,86.3 188.3,86.3 		"/>
		<polygon id="XMLID_10_" class="st0" points="238.6,51.5 223.4,86.3 227.8,86.3 238.6,60.3 249.6,86.3 253.9,86.3 		"/>
		<path id="XMLID_18_" class="st0" d="M191.7,86.3V51.5l24.5,26.8V52.8h3.8v34.8l-24.5-26.5v25.2H191.7z"/>
		<g id="XMLID_44_">
			<path id="XMLID_45_" class="st0" d="M292.3,68.3H306v1.1c0,5.2-1.5,9.3-4.4,12.4c-3,3-7,4.5-12.1,4.5c-1.6,0-3-0.2-4.5-0.5
				c-1.4-0.3-2.7-0.8-3.9-1.4c-2.7-1.5-4.8-3.6-6.3-6.2c-1.5-2.6-2.2-5.6-2.2-9c0-2.8,0.4-5.3,1.3-7.5c0.9-2.2,2.2-4.2,4-5.9
				c1.5-1.4,3.2-2.5,5.2-3.2c2-0.7,4.2-1.1,6.6-1.1c3.2,0,5.9,0.6,8.3,1.7c2.3,1.2,4.3,2.9,5.8,5.2l-3.3,2.7c-1.2-2-2.7-3.5-4.5-4.5
				c-1.8-1-3.9-1.5-6.2-1.5c-3.9,0-7,1.3-9.4,3.9c-2.4,2.6-3.6,6-3.6,10.2c0,4,1.2,7.2,3.7,9.7c2.4,2.5,5.5,3.8,9.3,3.8
				c3.3,0,6.1-1,8.3-3c2.2-2,3.4-4.6,3.7-7.9h-9.5V68.3z"/>
			<path id="XMLID_48_" class="st0" d="M313.1,85.4V52.3h7.8c2.2,0,3.8,0.1,4.9,0.4c1,0.2,1.9,0.7,2.7,1.3c1,0.8,1.7,1.8,2.3,3.1
				c0.5,1.3,0.8,2.7,0.8,4.3c0,2.7-0.8,4.8-2.3,6.2c-1.5,1.4-3.7,2.1-6.7,2.1h-0.7l12.7,15.8h-5l-12.1-15.8h-0.6v15.8H313.1z
				 M316.9,55.6v11.1h3c3.1,0,5.1-0.4,6.2-1.2c1-0.8,1.6-2.2,1.6-4.2c0-2.1-0.5-3.6-1.6-4.5c-1.1-0.9-3.1-1.3-6.1-1.3H316.9z"/>
			<path id="XMLID_53_" class="st0" d="M340.4,85.4V52.3h6.9c2.4,0,4.2,0.1,5.4,0.4c1.2,0.2,2.1,0.7,3,1.3c1.1,0.8,1.9,1.8,2.5,3
				c0.6,1.2,0.9,2.6,0.9,4c0,1.8-0.4,3.2-1.3,4.4c-0.8,1.2-2.1,2-3.7,2.5c2,0.3,3.5,1.2,4.7,2.6c1.1,1.5,1.7,3.3,1.7,5.5
				c0,1.3-0.2,2.6-0.7,3.8c-0.5,1.2-1.2,2.2-2,3.1c-0.9,0.9-2.1,1.6-3.5,1.9c-1.4,0.4-3.7,0.6-6.9,0.6H340.4z M344.2,55.7v11.1h3.1
				c2.8,0,4.8-0.4,5.9-1.2c1.1-0.8,1.7-2.2,1.7-4.1c0-2.1-0.5-3.6-1.6-4.5c-1.1-0.9-3.1-1.3-6.1-1.3H344.2z M344.2,69.9V82h3.1
				c2.1,0,3.6-0.1,4.5-0.2c0.9-0.2,1.7-0.5,2.2-0.9c0.7-0.5,1.2-1.2,1.6-2c0.4-0.9,0.6-1.8,0.6-2.9c0-1.2-0.2-2.3-0.7-3.1
				c-0.5-0.9-1.1-1.6-2-2.1c-0.5-0.3-1.1-0.5-1.8-0.7c-0.7-0.1-1.8-0.2-3.2-0.2h-1.2H344.2z"/>
			<path id="XMLID_4_" class="st0" d="M366.5,85.4V52.3h3.9v33.2H366.5z"/>
			<path id="XMLID_3_" class="st0" d="M405.4,60.2c-1.6-1.7-3.3-3-5.1-3.8c-1.8-0.8-3.8-1.2-6-1.2c-1.8,0-3.5,0.4-5.1,1.1
				c-1.7,0.7-3.1,1.7-4.3,3c-1.3,1.3-2.2,2.8-2.9,4.4c-0.6,1.6-1,3.4-1,5.4c0,1.5,0.2,3,0.6,4.3c0.4,1.3,0.9,2.5,1.7,3.6
				c1.3,1.9,3,3.3,4.9,4.4c1.9,1,4,1.5,6.3,1.5c2.1,0,4.1-0.4,5.9-1.3c1.8-0.9,3.5-2.2,5-3.9v5.2c-1.6,1.2-3.4,2.1-5.3,2.7
				c-1.9,0.6-3.9,0.9-5.9,0.9c-1.8,0-3.5-0.3-5.1-0.8c-1.7-0.5-3.2-1.3-4.7-2.3c-2.4-1.7-4.3-3.7-5.5-6.2c-1.3-2.4-1.9-5.1-1.9-8.1
				c0-2.6,0.4-4.9,1.3-7c0.9-2.1,2.2-4,3.9-5.7c1.7-1.6,3.6-2.9,5.6-3.7c2.1-0.8,4.3-1.2,6.7-1.2c1.9,0,3.8,0.3,5.6,0.9
				c1.8,0.6,3.6,1.5,5.3,2.7V60.2z"/>
		</g>
	</g>
	<path id="XMLID_47_" class="st0" d="M16.1,57.5c1-22,19.1-39.7,41.4-39.9c17.9-0.2,33.3,11,39.4,26.7l10.8-0.1
		C101.7,22.9,81,6.6,57.4,6.8C28.6,7.1,5.4,30.7,5.7,59.6c0,0.1,0,0.4,0,0.4L16.1,57.5z"/>
	<path id="XMLID_40_" class="st1" d="M109.8,53.6L73.5,54c1.4,2.1,1.9,6.4,0.1,10.1l25.8-0.3c-2.5,21.9-21.7,38.1-44,36.8
		c-15-0.9-27.6-9.6-34.3-21.8l-10.5,2.5c7.9,16.7,24.4,28.7,44.2,29.9c28.8,1.7,53.5-20.3,55.2-49.1
		C110.2,59.1,110.1,56.5,109.8,53.6z"/>
	<circle id="XMLID_2_" class="st0" cx="57.3" cy="60.2" r="9.4"/>
</g>
</svg>
