<?xml version="1.0" encoding="utf-8"?>
<!-- Generator: Adobe Illustrator 19.0.0, SVG Export Plug-In . SVG Version: 6.00 Build 0)  -->
<svg version="1.1" id="Layer_1" xmlns="http://www.w3.org/2000/svg" xmlns:xlink="http://www.w3.org/1999/xlink" x="0px" y="0px"
	 viewBox="0 0 265.3 166" style="enable-background:new 0 0 265.3 166;" xml:space="preserve">
<style type="text/css">
	.st0{fill:#E5E5E4;}
	.st1{fill:#AED036;}
</style>
<g id="XMLID_538_">
	<g id="XMLID_36_">
		<path id="XMLID_546_" class="st0" d="M90.1,52.4c2.8-20.2,20.1-35.8,41.1-36c4.4,0,8.7,0.6,12.7,1.8l0.1-11
			c-4.2-1-8.5-1.6-12.9-1.5c-26.8,0.3-48.7,20.7-51.4,46.7L90.1,52.4z"/>
		<path id="XMLID_543_" class="st1" d="M183.4,52.4l-36.3,0.4c1.4,2.1,1.9,6.4,0.1,10.1l25.8-0.3c-2.5,21.9-21.7,38.1-44,36.8
			C111.2,98.5,96.6,86.2,91.5,70l-10.8,0.1c5.2,21.8,24.2,38.5,47.7,39.9c28.8,1.7,53.5-20.3,55.2-49.1
			C183.8,57.9,183.8,55.4,183.4,52.4z"/>
		<circle id="XMLID_540_" class="st0" cx="131" cy="59" r="9.4"/>
	</g>
	<g id="XMLID_38_">
		<path id="XMLID_61_" class="st0" d="M6.9,127.9h3.4v32.2H6.9V127.9z"/>
		<path id="XMLID_72_" class="st0" d="M40.4,135.9l-10.8,24.2h-3.4l-10.7-24.2H19l9.1,20.6l9.2-20.6H40.4z"/>
		<path id="XMLID_86_" class="st0" d="M60,138c1.7,1.6,2.5,3.9,2.5,7v15h-3.1v-3.8c-0.7,1.3-1.8,2.2-3.2,2.9
			c-1.4,0.7-3.1,1.1-5.1,1.1c-2.7,0-4.8-0.6-6.4-1.9c-1.6-1.3-2.4-3-2.4-5.1c0-2.1,0.7-3.7,2.2-5c1.5-1.3,3.9-1.9,7.1-1.9h7.7v-1.5
			c0-2.1-0.6-3.7-1.7-4.8c-1.2-1.1-2.9-1.6-5.1-1.6c-1.5,0-3,0.3-4.4,0.8s-2.6,1.2-3.6,2.1l-1.5-2.4c1.2-1,2.7-1.8,4.4-2.4
			c1.7-0.6,3.5-0.9,5.4-0.9C55.9,135.7,58.3,136.5,60,138z M56.3,156.4c1.3-0.8,2.3-2.1,2.9-3.7v-4h-7.6c-4.1,0-6.2,1.4-6.2,4.3
			c0,1.4,0.5,2.5,1.6,3.3c1.1,0.8,2.6,1.2,4.5,1.2C53.4,157.7,55,157.3,56.3,156.4z"/>
		<path id="XMLID_90_" class="st0" d="M91,138.3c1.8,1.8,2.7,4.3,2.7,7.7v14h-3.3v-13.7c0-2.5-0.6-4.4-1.9-5.8c-1.3-1.3-3.1-2-5.4-2
			c-2.6,0-4.7,0.8-6.2,2.3c-1.5,1.5-2.3,3.7-2.3,6.4v12.7h-3.3v-24.2h3.1v4.5c0.9-1.5,2.1-2.6,3.7-3.4c1.6-0.8,3.4-1.2,5.5-1.2
			C86.8,135.7,89.2,136.6,91,138.3z"/>
		<path id="XMLID_93_" class="st0" d="M118.3,138c1.7,1.6,2.5,3.9,2.5,7v15h-3.1v-3.8c-0.7,1.3-1.8,2.2-3.2,2.9
			c-1.4,0.7-3.1,1.1-5.1,1.1c-2.7,0-4.8-0.6-6.4-1.9c-1.6-1.3-2.4-3-2.4-5.1c0-2.1,0.7-3.7,2.2-5c1.5-1.3,3.9-1.9,7.1-1.9h7.7v-1.5
			c0-2.1-0.6-3.7-1.7-4.8c-1.2-1.1-2.9-1.6-5.1-1.6c-1.5,0-3,0.3-4.4,0.8s-2.6,1.2-3.6,2.1l-1.5-2.4c1.2-1,2.7-1.8,4.4-2.4
			c1.7-0.6,3.5-0.9,5.4-0.9C114.2,135.7,116.6,136.5,118.3,138z M114.6,156.4c1.3-0.8,2.3-2.1,2.9-3.7v-4H110
			c-4.1,0-6.2,1.4-6.2,4.3c0,1.4,0.5,2.5,1.6,3.3c1.1,0.8,2.6,1.2,4.5,1.2C111.7,157.7,113.3,157.3,114.6,156.4z"/>
		<path id="XMLID_152_" class="st0" d="M165.1,144h3.3v12.3c-1.5,1.3-3.3,2.3-5.3,3c-2.1,0.7-4.2,1.1-6.5,1.1
			c-3.2,0-6.1-0.7-8.7-2.1c-2.6-1.4-4.6-3.4-6.1-5.9c-1.5-2.5-2.2-5.3-2.2-8.4c0-3.1,0.7-5.9,2.2-8.4c1.5-2.5,3.5-4.5,6.1-5.9
			c2.6-1.4,5.5-2.1,8.7-2.1c2.5,0,4.7,0.4,6.8,1.2c2.1,0.8,3.8,1.9,5.2,3.5l-2.1,2.2c-2.5-2.5-5.8-3.8-9.7-3.8c-2.6,0-5,0.6-7.1,1.7
			c-2.1,1.1-3.7,2.7-4.9,4.8c-1.2,2-1.8,4.3-1.8,6.8c0,2.5,0.6,4.8,1.8,6.8c1.2,2,2.8,3.6,4.9,4.8c2.1,1.2,4.4,1.7,7,1.7
			c3.3,0,6.1-0.8,8.4-2.5V144z"/>
		<path id="XMLID_199_" class="st0" d="M183.9,136.9c1.5-0.8,3.4-1.2,5.6-1.2v3.2l-0.8,0c-2.5,0-4.5,0.8-6,2.3
			c-1.4,1.6-2.2,3.8-2.2,6.6v12.3h-3.3v-24.2h3.1v4.7C181.2,139,182.3,137.7,183.9,136.9z"/>
		<path id="XMLID_204_" class="st0" d="M214,137.2c1.8,1,3.3,2.5,4.3,4.3c1,1.9,1.6,4,1.6,6.4s-0.5,4.5-1.6,6.4
			c-1,1.9-2.5,3.3-4.3,4.4c-1.8,1-3.9,1.6-6.2,1.6c-2,0-3.8-0.4-5.5-1.3c-1.6-0.9-2.9-2.1-3.9-3.7v4.8h-3.1v-34.1h3.3v14.5
			c1-1.6,2.3-2.8,3.9-3.6c1.6-0.8,3.3-1.2,5.3-1.2C210.1,135.7,212.2,136.2,214,137.2z M212.2,156.2c1.4-0.8,2.5-1.9,3.2-3.3
			s1.2-3.1,1.2-4.9c0-1.8-0.4-3.5-1.2-4.9c-0.8-1.4-1.9-2.6-3.2-3.3c-1.4-0.8-2.9-1.2-4.6-1.2c-1.7,0-3.3,0.4-4.6,1.2
			c-1.4,0.8-2.4,1.9-3.2,3.3c-0.8,1.4-1.2,3.1-1.2,4.9c0,1.8,0.4,3.5,1.2,4.9c0.8,1.4,1.9,2.6,3.2,3.3c1.4,0.8,2.9,1.2,4.6,1.2
			C209.3,157.4,210.8,157,212.2,156.2z"/>
		<path id="XMLID_208_" class="st0" d="M226.5,129.9c-0.5-0.5-0.7-1-0.7-1.7c0-0.6,0.2-1.1,0.7-1.6s1-0.7,1.7-0.7
			c0.7,0,1.2,0.2,1.7,0.7c0.5,0.4,0.7,1,0.7,1.6c0,0.7-0.2,1.2-0.7,1.7c-0.5,0.5-1,0.7-1.7,0.7C227.6,130.6,227,130.3,226.5,129.9z
			 M226.6,135.9h3.3v24.2h-3.3V135.9z"/>
		<path id="XMLID_244_" class="st0" d="M242.6,158.7c-1.9-1-3.4-2.5-4.4-4.4c-1.1-1.9-1.6-4-1.6-6.4c0-2.4,0.5-4.5,1.6-6.3
			s2.6-3.3,4.4-4.4c1.9-1,4-1.6,6.4-1.6c2.1,0,3.9,0.4,5.6,1.2c1.6,0.8,2.9,2,3.9,3.6l-2.4,1.7c-0.8-1.2-1.8-2.1-3-2.7
			c-1.2-0.6-2.6-0.9-4-0.9c-1.7,0-3.3,0.4-4.7,1.2c-1.4,0.8-2.5,1.9-3.3,3.3c-0.8,1.4-1.2,3.1-1.2,4.9c0,1.9,0.4,3.5,1.2,4.9
			c0.8,1.4,1.9,2.5,3.3,3.3c1.4,0.8,3,1.2,4.7,1.2c1.4,0,2.8-0.3,4-0.9c1.2-0.6,2.2-1.5,3-2.7l2.4,1.7c-1,1.6-2.3,2.8-3.9,3.6
			c-1.7,0.8-3.5,1.2-5.6,1.2C246.6,160.3,244.4,159.8,242.6,158.7z"/>
	</g>
</g>
</svg>
